<?xml version="1.0" encoding="UTF-8"?>
<svg version="1.1" xmlns="http://www.w3.org/2000/svg" width="155" height="200">
<path d="M0 0 C51.15 0 102.3 0 155 0 C155 66 155 132 155 200 C103.85 200 52.7 200 0 200 C0 134 0 68 0 0 Z " fill="#583232" transform="translate(0,0)"/>
<path d="M0 0 C51.15 0 102.3 0 155 0 C155 66 155 132 155 200 C103.85 200 52.7 200 0 200 C0 134 0 68 0 0 Z M9 25 C9 73.51 9 122.02 9 172 C53.88 172 98.76 172 145 172 C145 123.49 145 74.98 145 25 C100.12 25 55.24 25 9 25 Z " fill="#F9F7F7" transform="translate(0,0)"/>
<path d="M0 0 C33.66 0 67.32 0 102 0 C102 12.21 102 24.42 102 37 C93.585 37.495 93.585 37.495 85 38 C85 31.73 85 25.46 85 19 C73.78 19 62.56 19 51 19 C51 31.21 51 43.42 51 56 C54.63 56 58.26 56 62 56 C62 56.33 62 56.66 62 57 C58.7 57 55.4 57 52 57 C52 68.55 52 80.1 52 92 C57.28 92 62.56 92 68 92 C68 89.36 68 86.72 68 84 C65.69 84 63.38 84 61 84 C61 83.67 61 83.34 61 83 C63.31 83 65.62 83 68 83 C68 80.36 68 77.72 68 75 C66.515 74.505 66.515 74.505 65 74 C65.99 74 66.98 74 68 74 C67.80921875 73.32453125 67.6184375 72.6490625 67.421875 71.953125 C65.62638992 64.72942921 65.62638992 64.72942921 67.3125 61.4375 C71.1058924 59.40847616 74.74759414 59.18172675 79 59 C78.67 58.34 78.34 57.68 78 57 C76.48146864 52.44440592 76.17640527 48.05898683 78 43.5 C78.495 42.7575 78.495 42.7575 79 42 C81.14336161 45.4766338 81.21277626 48.21229195 81.125 52.25 C81.10695313 53.32765625 81.08890625 54.4053125 81.0703125 55.515625 C81.04710938 56.33546875 81.02390625 57.1553125 81 58 C81.66 58.33 82.32 58.66 83 59 C83.33 59.99 83.66 60.98 84 62 C86.31 62 88.62 62 91 62 C90.72698814 65.2761423 90.20885506 66.76503806 88 69.25 C83.55886836 71.84066013 78.78599446 72.59734015 73.72265625 71.51171875 C72.86994141 71.25841797 72.86994141 71.25841797 72 71 C72 71.99 72 72.98 72 74 C71.34 74 70.68 74 70 74 C69.67 76.97 69.34 79.94 69 83 C71.31 83 73.62 83 76 83 C76.33 82.34 76.66 81.68 77 81 C77 81.66 77 82.32 77 83 C77.66 83 78.32 83 79 83 C79.33837891 82.21109375 79.33837891 82.21109375 79.68359375 81.40625 C81.4606416 78.15799636 83.74892456 75.37401165 86.0625 72.5 C90.60793134 66.79820851 95.00699245 61.01182169 99.3203125 55.1328125 C99.87460938 54.42898437 100.42890625 53.72515625 101 53 C101.33 53 101.66 53 102 53 C102 72.14 102 91.28 102 111 C68.34 111 34.68 111 0 111 C0 74.37 0 37.74 0 0 Z " fill="#FAF8F8" transform="translate(26,42)"/>
<path d="M0 0 C0.33 0 0.66 0 1 0 C1 11.55 1 23.1 1 35 C7.435 34.505 7.435 34.505 14 34 C14 37 14 37 12.26171875 38.88188171 C11.51535156 39.58086075 10.76898438 40.27983978 10 41 C2.72354407 48.99390276 0.82856125 55.06115744 1 65.76171875 C0.98912354 67.03352493 0.97824707 68.30533112 0.96704102 69.61567688 C0.9454428 72.95911905 0.95769639 76.29878336 0.98712158 79.64190674 C1.00869141 83.06803317 0.98471009 86.49382952 0.96484375 89.91992188 C0.93510959 96.61374621 0.95008048 103.30632077 1 110 C0.67 110 0.34 110 0 110 C-0.33 91.52 -0.66 73.04 -1 54 C-3.64 57.63 -6.28 61.26 -9 65 C-13.125 70.1875 -13.125 70.1875 -15.140625 72.62890625 C-17.02645489 74.94313599 -17.02645489 74.94313599 -18.484375 77.40234375 C-19.86859003 79.61475486 -20.99132587 81.32914834 -23 83 C-26.58563739 83.6804071 -29.31336313 83.39855534 -33 83 C-33 79.04 -33 75.08 -33 71 C-32.67 71.99 -32.34 72.98 -32 74 C-31.34 74 -30.68 74 -30 74 C-30.66 72.35 -31.32 70.7 -32 69 C-31.195625 69.350625 -30.39125 69.70125 -29.5625 70.0625 C-25.10144997 71.23646053 -21.44348122 71.29056991 -17 70 C-13.91201326 67.74942433 -13.91201326 67.74942433 -12 65 C-12 64.34 -12 63.68 -12 63 C-13.98 63 -15.96 63 -18 63 C-18.1546875 62.0409375 -18.1546875 62.0409375 -18.3125 61.0625 C-18.539375 60.381875 -18.76625 59.70125 -19 59 C-20.485 58.505 -20.485 58.505 -22 58 C-21.98839844 57.16855469 -21.97679688 56.33710937 -21.96484375 55.48046875 C-21.95582031 54.39378906 -21.94679688 53.30710938 -21.9375 52.1875 C-21.92589844 51.10855469 -21.91429688 50.02960938 -21.90234375 48.91796875 C-21.86375234 45.93487831 -21.86375234 45.93487831 -23 43 C-24.74706142 48.24118425 -24.32791716 53.68833136 -23 59 C-23.92232422 59.19916016 -23.92232422 59.19916016 -24.86328125 59.40234375 C-25.67152344 59.57894531 -26.47976562 59.75554687 -27.3125 59.9375 C-28.11300781 60.11152344 -28.91351563 60.28554687 -29.73828125 60.46484375 C-32.145401 60.99886159 -32.145401 60.99886159 -35 62 C-34.9278125 62.74121094 -34.855625 63.48242188 -34.78125 64.24609375 C-33.96249766 73.53665853 -33.92417811 82.67390749 -34 92 C-39.28 92 -44.56 92 -50 92 C-49.98839844 89.48503906 -49.97679688 86.97007812 -49.96484375 84.37890625 C-49.95705327 81.9530449 -49.95097646 79.52718493 -49.94506836 77.10131836 C-49.9400281 75.41055684 -49.93319595 73.71979971 -49.92456055 72.02905273 C-49.91248143 69.60399293 -49.90676877 67.17899056 -49.90234375 64.75390625 C-49.89718246 63.99348526 -49.89202118 63.23306427 -49.88670349 62.44960022 C-49.88650762 60.6326743 -49.93802723 58.81586873 -50 57 C-50.33 56.67 -50.66 56.34 -51 56 C-51.08858646 53.26105915 -51.11523479 50.5474673 -51.09765625 47.80859375 C-51.0962413 46.98875504 -51.09482635 46.16891632 -51.09336853 45.32423401 C-51.08775289 42.69528618 -51.07519779 40.06642227 -51.0625 37.4375 C-51.05748701 35.65950643 -51.05292376 33.88151154 -51.04882812 32.10351562 C-51.03862752 27.73561842 -51.01905532 23.3679036 -51 19 C-39.78 19 -28.56 19 -17 19 C-17 25.27 -17 31.54 -17 38 C-14.525 37.505 -14.525 37.505 -12 37 C-8.04 37 -4.08 37 0 37 C0 24.79 0 12.58 0 0 Z " fill="#674443" transform="translate(128,42)"/>
<path d="M0 0 C51.15 0 102.3 0 155 0 C155 66 155 132 155 200 C103.85 200 52.7 200 0 200 C0 134 0 68 0 0 Z M2 1 C2 66.34 2 131.68 2 199 C51.5 199 101 199 152 199 C152 139.93 152 80.86 152 20 C150.02 20.495 150.02 20.495 148 21 C148 20.01 148 19.02 148 18 C145.69 17.67 143.38 17.34 141 17 C141 15.35 141 13.7 141 12 C142.98 11.34 144.96 10.68 147 10 C147.33 10.99 147.66 11.98 148 13 C151.24849977 11.27773504 151.24849977 11.27773504 152 8 C152 5.69 152 3.38 152 1 C102.5 1 53 1 2 1 Z " fill="#E7E7E6" transform="translate(0,0)"/>
<path d="M0 0 C0.66 0.99 1.32 1.98 2 3 C2.515625 2.835 3.03125 2.67 3.5625 2.5 C6.73363876 1.84951 9.77218334 1.9379266 13 2 C13 4.31 13 6.62 13 9 C13.99 9 14.98 9 16 9 C16 6.69 16 4.38 16 2 C17.65 2 19.3 2 21 2 C21 4.31 21 6.62 21 9 C21.99 9.33 22.98 9.66 24 10 C18.06 10.495 18.06 10.495 12 11 C12 12.32 12 13.64 12 15 C35.76 15.33 59.52 15.66 84 16 C79.77723731 11.77723731 79.34388679 11.81320016 74 11 C72 8 72 8 72.3125 5.375 C73 3 73 3 74 2 C75.97513667 1.84873769 77.95678135 1.77826234 79.9375 1.75 C81.01902344 1.72421875 82.10054688 1.6984375 83.21484375 1.671875 C84.13394531 1.78015625 85.05304688 1.8884375 86 2 C86.99 3.485 86.99 3.485 88 5 C88.66 4.01 89.32 3.02 90 2 C90 5.3 90 8.6 90 12 C89.34 12.33 88.68 12.66 88 13 C88.66 13 89.32 13 90 13 C91.14814997 10.70370006 91.30769809 8.92301914 91.5625 6.375 C91.706875 4.93125 91.85125 3.4875 92 2 C97.61 2 103.22 2 109 2 C109.495 3.98 109.495 3.98 110 6 C110.33 4.68 110.66 3.36 111 2 C111.99 2 112.98 2 114 2 C114.33 1.34 114.66 0.68 115 0 C116.70840281 1.63412443 117.93453047 2.86906094 119 5 C119.33 4.01 119.66 3.02 120 2 C120.66 2 121.32 2 122 2 C122 4.64 122 7.28 122 10 C121.01 10 120.02 10 119 10 C118.505 9.01 118.505 9.01 118 8 C117.67 8.66 117.34 9.32 117 10 C115.36935236 11.05771739 113.69719127 12.05273046 112 13 C111.278125 13.4125 110.55625 13.825 109.8125 14.25 C109.214375 14.4975 108.61625 14.745 108 15 C106 14 106 14 105 13 C104.01 13 103.02 13 102 13 C101.505 12.01 101.505 12.01 101 11 C100.34 12.32 99.68 13.64 99 15 C113.85 15.495 113.85 15.495 129 16 C129 65.17 129 114.34 129 165 C83.79 165 38.58 165 -8 165 C-8 164.67 -8 164.34 -8 164 C36.88 164 81.76 164 128 164 C128 115.49 128 66.98 128 17 C83.12 17 38.24 17 -8 17 C-8 16.67 -8 16.34 -8 16 C-4.7 16 -1.4 16 2 16 C1.814375 15.236875 1.62875 14.47375 1.4375 13.6875 C1 11 1 11 2 8 C0.68 8 -0.64 8 -2 8 C-2.33 8.66 -2.66 9.32 -3 10 C-2.67 7.69 -2.34 5.38 -2 3 C-2.66 3 -3.32 3 -4 3 C-4 4.32 -4 5.64 -4 7 C-4.99 7 -5.98 7 -7 7 C-7 7.99 -7 8.98 -7 10 C-7.66 10 -8.32 10 -9 10 C-9 7.36 -9 4.72 -9 2 C-5.62902617 0.50178941 -3.79557881 0 0 0 Z " fill="#9C8988" transform="translate(17,8)"/>
<path d="M0 0 C10.89 0 21.78 0 33 0 C33 9.24 33 18.48 33 28 C22.11 28 11.22 28 0 28 C0 18.76 0 9.52 0 0 Z " fill="#856A69" transform="translate(43,61)"/>
<path d="M0 0 C10.89 0 21.78 0 33 0 C33 8.91 33 17.82 33 27 C22.11 27 11.22 27 0 27 C0 18.09 0 9.18 0 0 Z " fill="#8A6C6C" transform="translate(43,107)"/>
<path d="M0 0 C11.22 0 22.44 0 34 0 C34 6.6 34 13.2 34 20 C29.93792077 20.50363787 25.87539815 21.00305047 21.8125 21.5 C20.66201172 21.64308594 19.51152344 21.78617188 18.32617188 21.93359375 C17.21435547 22.06894531 16.10253906 22.20429687 14.95703125 22.34375 C13.42526245 22.53227539 13.42526245 22.53227539 11.86254883 22.72460938 C9.21858939 22.97897068 6.6537801 23.05115721 4 23 C4.5053125 23.84304687 5.010625 24.68609375 5.53125 25.5546875 C6.50578125 27.19824219 6.50578125 27.19824219 7.5 28.875 C8.47453125 30.51082031 8.47453125 30.51082031 9.46875 32.1796875 C11 35 11 35 11 37 C7.37 37 3.74 37 0 37 C0 24.79 0 12.58 0 0 Z " fill="#846766" transform="translate(77,61)"/>
<path d="M0 0 C2.14336161 3.4766338 2.21277626 6.21229195 2.125 10.25 C2.10695313 11.32765625 2.08890625 12.4053125 2.0703125 13.515625 C2.04710938 14.33546875 2.02390625 15.1553125 2 16 C2.66 16.33 3.32 16.66 4 17 C4.33 17.99 4.66 18.98 5 20 C7.31 20 9.62 20 12 20 C11.72698814 23.2761423 11.20885506 24.76503806 9 27.25 C4.55886836 29.84066013 -0.21400554 30.59734015 -5.27734375 29.51171875 C-5.84582031 29.34285156 -6.41429688 29.17398438 -7 29 C-7 29.99 -7 30.98 -7 32 C-7.66 32 -8.32 32 -9 32 C-9.33 34.97 -9.66 37.94 -10 41 C-7.69 41 -5.38 41 -3 41 C-2.67 40.34 -2.34 39.68 -2 39 C-2 39.66 -2 40.32 -2 41 C-1.34 41 -0.68 41 0 41 C0.2475 40.4225 0.495 39.845 0.75 39.25 C2 37 2 37 6 33 C6 38.61 6 44.22 6 50 C0.39 50 -5.22 50 -11 50 C-11 47.36 -11 44.72 -11 42 C-13.31 42 -15.62 42 -18 42 C-18 41.67 -18 41.34 -18 41 C-15.69 41 -13.38 41 -11 41 C-11 38.36 -11 35.72 -11 33 C-11.99 32.67 -12.98 32.34 -14 32 C-13.01 32 -12.02 32 -11 32 C-11.19078125 31.32453125 -11.3815625 30.6490625 -11.578125 29.953125 C-13.37361008 22.72942921 -13.37361008 22.72942921 -11.6875 19.4375 C-7.8941076 17.40847616 -4.25240586 17.18172675 0 17 C-0.33 16.34 -0.66 15.68 -1 15 C-2.51853136 10.44440592 -2.82359473 6.05898683 -1 1.5 C-0.67 1.005 -0.34 0.51 0 0 Z " fill="#8E6D6D" transform="translate(105,84)"/>
<path d="M0 0 C3 1 3 1 4.1875 3.0625 C4.455625 3.701875 4.72375 4.34125 5 5 C5.33 4.01 5.66 3.02 6 2 C6.66 2 7.32 2 8 2 C8 4.64 8 7.28 8 10 C7.01 10 6.02 10 5 10 C4.505 9.01 4.505 9.01 4 8 C3.67 8.66 3.34 9.32 3 10 C1.36935236 11.05771739 -0.30280873 12.05273046 -2 13 C-2.721875 13.4125 -3.44375 13.825 -4.1875 14.25 C-4.785625 14.4975 -5.38375 14.745 -6 15 C-8 14 -8 14 -9 13 C-9.99 13 -10.98 13 -12 13 C-12.33 12.34 -12.66 11.68 -13 11 C-13.66 12.65 -14.32 14.3 -15 16 C-17.4178712 16.10826289 -19.83087556 16.18739789 -22.25 16.25 C-23.27287109 16.30027344 -23.27287109 16.30027344 -24.31640625 16.3515625 C-27.84146581 16.42001026 -29.57519338 16.36753747 -32.2890625 14.01953125 C-32.85367188 13.35308594 -33.41828125 12.68664062 -34 12 C-35.99551782 11.64080679 -37.99548879 11.30503431 -40 11 C-42 8 -42 8 -41.6875 5.375 C-41 3 -41 3 -40 2 C-38.02486333 1.84873769 -36.04321865 1.77826234 -34.0625 1.75 C-32.98097656 1.72421875 -31.89945313 1.6984375 -30.78515625 1.671875 C-29.86605469 1.78015625 -28.94695312 1.8884375 -28 2 C-27.01 3.485 -27.01 3.485 -26 5 C-25.34 4.01 -24.68 3.02 -24 2 C-24 5.3 -24 8.6 -24 12 C-24.99 12.495 -24.99 12.495 -26 13 C-25.34 13 -24.68 13 -24 13 C-22.85185003 10.70370006 -22.69230191 8.92301914 -22.4375 6.375 C-22.293125 4.93125 -22.14875 3.4875 -22 2 C-16.39 2 -10.78 2 -5 2 C-4.505 3.98 -4.505 3.98 -4 6 C-3.67 4.68 -3.34 3.36 -3 2 C-2.01 2 -1.02 2 0 2 C0 1.34 0 0.68 0 0 Z " fill="#F4EEED" transform="translate(131,8)"/>
<path d="M0 0 C0.33 0 0.66 0 1 0 C1 65.34 1 130.68 1 198 C-48.83 198 -98.66 198 -150 198 C-150 197.67 -150 197.34 -150 197 C-100.5 197 -51 197 0 197 C-0.33 138.26 -0.66 79.52 -1 19 C-2.98 19.495 -2.98 19.495 -5 20 C-5 19.01 -5 18.02 -5 17 C-7.31 16.34 -9.62 15.68 -12 15 C-12.125 12.625 -12.125 12.625 -12 10 C-10 8 -10 8 -7.375 7.875 C-6.59125 7.91625 -5.8075 7.9575 -5 8 C-4.67 8.66 -4.34 9.32 -4 10 C-3.34 9.67 -2.68 9.34 -2 9 C-2 8.01 -2 7.02 -2 6 C-1.34 6 -0.68 6 0 6 C0 4.02 0 2.04 0 0 Z " fill="#C9C9C8" transform="translate(152,2)"/>
<path d="M0 0 C1.25425781 0.00902344 2.50851563 0.01804687 3.80078125 0.02734375 C4.75339844 0.03894531 5.70601562 0.05054687 6.6875 0.0625 C6.3575 1.3825 6.0275 2.7025 5.6875 4.0625 C6.3475 4.0625 7.0075 4.0625 7.6875 4.0625 C8.3125 6.875 8.3125 6.875 8.6875 10.0625 C7.6975 11.5475 7.6975 11.5475 6.6875 13.0625 C7.3475 13.3925 8.0075 13.7225 8.6875 14.0625 C8.3575 15.0525 8.0275 16.0425 7.6875 17.0625 C8.6775 17.3925 9.6675 17.7225 10.6875 18.0625 C6.6875 19.39583333 2.6875 20.72916667 -1.3125 22.0625 C-2.77470279 19.50214079 -4.23235153 16.9393644 -5.6875 14.375 C-6.1 13.65376953 -6.5125 12.93253906 -6.9375 12.18945312 C-8.99682272 8.55242349 -10.89539052 5.01016212 -12.3125 1.0625 C-8.15623632 0.05323521 -4.26884906 -0.03989579 0 0 Z " fill="#593232" transform="translate(93.3125,82.9375)"/>
<path d="M0 0 C0.66 0.99 1.32 1.98 2 3 C2.515625 2.835 3.03125 2.67 3.5625 2.5 C6.73363876 1.84951 9.77218334 1.9379266 13 2 C13 4.31 13 6.62 13 9 C13.99 9 14.98 9 16 9 C16 6.69 16 4.38 16 2 C17.65 2 19.3 2 21 2 C21 4.31 21 6.62 21 9 C21.99 9.33 22.98 9.66 24 10 C18.06 10.495 18.06 10.495 12 11 C12 12.32 12 13.64 12 15 C8.78548731 16.60725635 5.56387464 16.05748185 2 16 C1.20046862 12.71303767 0.90341064 11.28976808 2 8 C0.68 8 -0.64 8 -2 8 C-2.33 8.66 -2.66 9.32 -3 10 C-2.67 7.69 -2.34 5.38 -2 3 C-2.66 3 -3.32 3 -4 3 C-4 4.32 -4 5.64 -4 7 C-4.99 7 -5.98 7 -7 7 C-7 7.99 -7 8.98 -7 10 C-7.66 10 -8.32 10 -9 10 C-9 7.36 -9 4.72 -9 2 C-5.62902617 0.50178941 -3.79557881 0 0 0 Z " fill="#F5F0F0" transform="translate(17,8)"/>
<path d="M0 0 C2.14336161 3.4766338 2.21277626 6.21229195 2.125 10.25 C2.10695313 11.32765625 2.08890625 12.4053125 2.0703125 13.515625 C2.04710938 14.33546875 2.02390625 15.1553125 2 16 C2.66 16.33 3.32 16.66 4 17 C4.33 17.99 4.66 18.98 5 20 C7.31 20 9.62 20 12 20 C11.72698814 23.2761423 11.20885506 24.76503806 9 27.25 C5.04147614 29.55913892 1.56943615 30.22431777 -3 30 C-6.22965782 28.59580095 -8.80385136 26.77408249 -11 24 C-11 23.01 -11 22.02 -11 21 C-10.43410156 20.87882812 -9.86820312 20.75765625 -9.28515625 20.6328125 C-8.55167969 20.46523437 -7.81820312 20.29765625 -7.0625 20.125 C-6.33160156 19.96257812 -5.60070312 19.80015625 -4.84765625 19.6328125 C-2.79299706 19.17038477 -2.79299706 19.17038477 -2 17 C-1.34 17 -0.68 17 0 17 C-0.33 16.34 -0.66 15.68 -1 15 C-2.51853136 10.44440592 -2.82359473 6.05898683 -1 1.5 C-0.67 1.005 -0.34 0.51 0 0 Z " fill="#F6F2F1" transform="translate(105,84)"/>
<path d="M0 0 C0.33 1.65 0.66 3.3 1 5 C1.33 5 1.66 5 2 5 C2.33 3.35 2.66 1.7 3 0 C4.98 0 6.96 0 9 0 C8.67 1.65 8.34 3.3 8 5 C7.34 5 6.68 5 6 5 C6 5.66 6 6.32 6 7 C6.99 7.33 7.98 7.66 9 8 C7.68 8.33 6.36 8.66 5 9 C5.66 9.66 6.32 10.32 7 11 C6.01 11.33 5.02 11.66 4 12 C3.67 12.66 3.34 13.32 3 14 C1.37509046 14.02698189 -0.24994633 14.04638757 -1.875 14.0625 C-2.77992187 14.07410156 -3.68484375 14.08570312 -4.6171875 14.09765625 C-7 14 -7 14 -9 13 C-9 11.68 -9 10.36 -9 9 C-10.32 8.67 -11.64 8.34 -13 8 C-13 5.69 -13 3.38 -13 1 C-7.84596189 -1.68009982 -5.54675294 -2.57044649 0 0 Z " fill="#F4F1EF" transform="translate(71,10)"/>
<path d="M0 0 C2.97 0.66 5.94 1.32 9 2 C9.33 3.32 9.66 4.64 10 6 C8.55859375 8.296875 8.55859375 8.296875 6.4375 10.75 C3.69599602 13.94131896 1.33203161 17.05049923 -0.875 20.625 C-2.72310192 23.18154099 -3.45309228 23.89621932 -6.59375 24.4921875 C-9.375 24.5 -9.375 24.5 -14 24 C-14 20.04 -14 16.08 -14 12 C-13.67 12.99 -13.34 13.98 -13 15 C-12.34 15 -11.68 15 -11 15 C-11.66 13.35 -12.32 11.7 -13 10 C-12.195625 10.350625 -11.39125 10.70125 -10.5625 11.0625 C-6.10144997 12.23646053 -2.44348122 12.29056991 2 11 C5.08798674 8.74942433 5.08798674 8.74942433 7 6 C7 5.34 7 4.68 7 4 C5.02 4 3.04 4 1 4 C0.67 2.68 0.34 1.36 0 0 Z " fill="#644142" transform="translate(109,101)"/>
<path d="M0 0 C0.99 0 1.98 0 3 0 C5.1519437 3.22791555 5.20086443 4.28400809 5 8 C6.98 8 8.96 8 11 8 C11.66 9.65 12.32 11.3 13 13 C2.77 13 -7.46 13 -18 13 C-17.34 11.02 -16.68 9.04 -16 7 C-14.68 7.66 -13.36 8.32 -12 9 C-11.67 8.67 -11.34 8.34 -11 8 C-9.14712498 7.92773498 -7.29166122 7.9161878 -5.4375 7.9375 C-4.42558594 7.94652344 -3.41367187 7.95554687 -2.37109375 7.96484375 C-1.19740234 7.98224609 -1.19740234 7.98224609 0 8 C0 5.36 0 2.72 0 0 Z " fill="#FBFAF8" transform="translate(45,11)"/>
<path d="M0 0 C3 1 3 1 4.1875 3.0625 C4.455625 3.701875 4.72375 4.34125 5 5 C5.33 4.01 5.66 3.02 6 2 C6.66 2 7.32 2 8 2 C8 4.64 8 7.28 8 10 C7.01 10 6.02 10 5 10 C4.67 9.34 4.34 8.68 4 8 C3.67 8.66 3.34 9.32 3 10 C1.36935236 11.05771739 -0.30280873 12.05273046 -2 13 C-2.721875 13.4125 -3.44375 13.825 -4.1875 14.25 C-4.785625 14.4975 -5.38375 14.745 -6 15 C-8.66604583 13.66697708 -8.99124788 12.81009519 -10 10 C-10.16468671 7.30840157 -10.09005213 4.70156394 -10 2 C-8.35 2 -6.7 2 -5 2 C-4.67 3.32 -4.34 4.64 -4 6 C-3.67 4.68 -3.34 3.36 -3 2 C-2.01 2 -1.02 2 0 2 C0 1.34 0 0.68 0 0 Z " fill="#EDE5E5" transform="translate(131,8)"/>
<path d="M0 0 C0.33 0.66 0.66 1.32 1 2 C1.78375 1.979375 2.5675 1.95875 3.375 1.9375 C6 2 6 2 8 3 C9.66619446 3.0396713 11.33391013 3.04384447 13 3 C12.01 3.33 11.02 3.66 10 4 C10 4.66 10 5.32 10 6 C10.99 6 11.98 6 13 6 C13.5625 7.9375 13.5625 7.9375 14 10 C13 11 13 11 9.4375 11.0625 C8.303125 11.041875 7.16875 11.02125 6 11 C5.67 10.01 5.34 9.02 5 8 C4.34 8 3.68 8 3 8 C3 8.99 3 9.98 3 11 C0.36 11 -2.28 11 -5 11 C-5 8.03 -5 5.06 -5 2 C-3.35 1.34 -1.7 0.68 0 0 Z " fill="#A39497" transform="translate(43,180)"/>
<path d="M0 0 C5.28 0 10.56 0 16 0 C16 2.64 16 5.28 16 8 C10.72 8 5.44 8 0 8 C0 5.36 0 2.72 0 0 Z " fill="#6A4C49" transform="translate(95,126)"/>
<path d="M0 0 C0.92232422 0.2165625 0.92232422 0.2165625 1.86328125 0.4375 C3.07564453 0.7159375 3.07564453 0.7159375 4.3125 1 C5.11300781 1.185625 5.91351563 1.37125 6.73828125 1.5625 C9.10695938 2.09495823 9.10695938 2.09495823 12 2 C12.33 3.65 12.66 5.3 13 7 C4.09 7 -4.82 7 -14 7 C-13.34 5.35 -12.68 3.7 -12 2 C-7.25 2.875 -7.25 2.875 -5 4 C-4.67 3.34 -4.34 2.68 -4 2 C-2.66666667 2 -1.33333333 2 0 2 C0 1.34 0 0.68 0 0 Z " fill="#FBF9F8" transform="translate(88,17)"/>
<path d="M0 0 C0.33 0.99 0.66 1.98 1 3 C1.68707031 2.91621094 2.37414063 2.83242187 3.08203125 2.74609375 C3.98308594 2.64425781 4.88414063 2.54242188 5.8125 2.4375 C6.70582031 2.33308594 7.59914063 2.22867188 8.51953125 2.12109375 C11 2 11 2 14 3 C13.01 5.97 12.02 8.94 11 12 C9 8 9 8 8 5 C7.01 5 6.02 5 5 5 C5 7.31 5 9.62 5 12 C4.34 12 3.68 12 3 12 C3 10.02 3 8.04 3 6 C2.01 6 1.02 6 0 6 C0 7.98 0 9.96 0 12 C-0.66 12 -1.32 12 -2 12 C-2.05422947 10.5629191 -2.09289723 9.12524538 -2.125 7.6875 C-2.14820313 6.88699219 -2.17140625 6.08648437 -2.1953125 5.26171875 C-2 3 -2 3 0 0 Z " fill="#968B8B" transform="translate(60,179)"/>
<path d="M0 0 C3.625 -0.1875 3.625 -0.1875 7 0 C7 2.31 7 4.62 7 7 C7.99 7 8.98 7 10 7 C10 4.69 10 2.38 10 0 C11.65 0 13.3 0 15 0 C15 2.31 15 4.62 15 7 C15.99 7.33 16.98 7.66 18 8 C14.04 8 10.08 8 6 8 C5.67 6.02 5.34 4.04 5 2 C3.68 2.33 2.36 2.66 1 3 C1 3.99 1 4.98 1 6 C1.99 6.66 2.98 7.32 4 8 C2.35 8 0.7 8 -1 8 C-1.625 5.6875 -1.625 5.6875 -2 3 C-1.34 2.01 -0.68 1.02 0 0 Z " fill="#766A6B" transform="translate(23,10)"/>
<path d="M0 0 C0.66 0.33 1.32 0.66 2 1 C1.34 2.32 0.68 3.64 0 5 C0.99 5.66 1.98 6.32 3 7 C2.67 7.66 2.34 8.32 2 9 C-4.6 9 -11.2 9 -18 9 C-18 7.33333333 -18 5.66666667 -18 4 C-14.88742431 4 -12.89234315 4.17361624 -10 5 C-10.33 5.66 -10.66 6.32 -11 7 C-7.18759068 6.48480955 -5.6205882 5.73970585 -3 3 C-2.01 3 -1.02 3 0 3 C0 2.01 0 1.02 0 0 Z " fill="#FBF6F6" transform="translate(134,15)"/>
<path d="M0 0 C1.98 0 3.96 0 6 0 C6.33 0.66 6.66 1.32 7 2 C5.35 2.33 3.7 2.66 2 3 C3.07464714 5.8106156 4.23467362 8.45129543 5.625 11.125 C7 14 7 14 7 17 C4.69 17 2.38 17 0 17 C0 11.39 0 5.78 0 0 Z " fill="#593937" transform="translate(78,80)"/>
<path d="M0 0 C3.07692308 5.41538462 3.07692308 5.41538462 2.6875 8.375 C2.460625 8.91125 2.23375 9.4475 2 10 C2 9.34 2 8.68 2 8 C0.68 8 -0.64 8 -2 8 C-2.33 8.66 -2.66 9.32 -3 10 C-2.67 7.69 -2.34 5.38 -2 3 C-2.66 3 -3.32 3 -4 3 C-4 4.32 -4 5.64 -4 7 C-4.99 7 -5.98 7 -7 7 C-7 7.99 -7 8.98 -7 10 C-7.66 10 -8.32 10 -9 10 C-9 7.36 -9 4.72 -9 2 C-5.62902617 0.50178941 -3.79557881 0 0 0 Z " fill="#E1DADA" transform="translate(17,8)"/>
<path d="M0 0 C2.01822917 0.06510417 4.03645833 0.13020833 6.0546875 0.1953125 C6.0546875 2.8353125 6.0546875 5.4753125 6.0546875 8.1953125 C3.0846875 8.1953125 0.1146875 8.1953125 -2.9453125 8.1953125 C-3.5703125 5.3203125 -3.5703125 5.3203125 -3.9453125 2.1953125 C-1.9453125 0.1953125 -1.9453125 0.1953125 0 0 Z " fill="#9B8D8D" transform="translate(92.9453125,9.8046875)"/>
<path d="M0 0 C0.33 0.66 0.66 1.32 1 2 C2.65 2 4.3 2 6 2 C4.68 2.33 3.36 2.66 2 3 C2 5.64 2 8.28 2 11 C-0.31 11 -2.62 11 -5 11 C-5 8.03 -5 5.06 -5 2 C-3.35 1.34 -1.7 0.68 0 0 Z " fill="#D1C6C5" transform="translate(43,180)"/>
<path d="M0 0 C5.61 0 11.22 0 17 0 C17 0.66 17 1.32 17 2 C12.93809157 2.50488515 8.87538649 3.0030519 4.8125 3.5 C3.08676758 3.71462891 3.08676758 3.71462891 1.32617188 3.93359375 C0.21435547 4.06894531 -0.89746094 4.20429687 -2.04296875 4.34375 C-3.57473755 4.53227539 -3.57473755 4.53227539 -5.13745117 4.72460938 C-7.78141061 4.97897068 -10.3462199 5.05115721 -13 5 C-12.67 6.32 -12.34 7.64 -12 9 C-12.99 8.01 -13.98 7.02 -15 6 C-14.67 5.01 -14.34 4.02 -14 3 C-9.38 2.67 -4.76 2.34 0 2 C0 1.34 0 0.68 0 0 Z " fill="#9D7B7A" transform="translate(94,79)"/>
<path d="M0 0 C0.928125 0.350625 1.85625 0.70125 2.8125 1.0625 C5.9802953 2.32382628 5.9802953 2.32382628 9 1 C9.66 2.98 10.32 4.96 11 7 C9.68 7.99 8.36 8.98 7 10 C7 9.01 7 8.02 7 7 C5.948125 6.87625 4.89625 6.7525 3.8125 6.625 C0.54041229 6.08859218 -2.00536076 5.36119965 -5 4 C-3 3 -3 3 -2 3 C-1.34 2.01 -0.68 1.02 0 0 Z " fill="#533132" transform="translate(111,96)"/>
<path d="M0 0 C2.64 0 5.28 0 8 0 C8 2.64 8 5.28 8 8 C5.36 8 2.72 8 0 8 C0 5.36 0 2.72 0 0 Z " fill="#5A3836" transform="translate(86,126)"/>
<path d="M0 0 C2.64 0 5.28 0 8 0 C8 2.64 8 5.28 8 8 C5.36 8 2.72 8 0 8 C0 5.36 0 2.72 0 0 Z " fill="#5B3736" transform="translate(52,126)"/>
<path d="M0 0 C2.64 0 5.28 0 8 0 C8 2.64 8 5.28 8 8 C5.36 8 2.72 8 0 8 C0 5.36 0 2.72 0 0 Z " fill="#5B3835" transform="translate(86,117)"/>
<path d="M0 0 C2.64 0 5.28 0 8 0 C8 2.64 8 5.28 8 8 C5.36 8 2.72 8 0 8 C0 5.36 0 2.72 0 0 Z " fill="#5B3636" transform="translate(52,117)"/>
<path d="M0 0 C2.64 0 5.28 0 8 0 C8 2.64 8 5.28 8 8 C5.36 8 2.72 8 0 8 C0 5.36 0 2.72 0 0 Z " fill="#5B3737" transform="translate(52,107)"/>
<path d="M0 0 C2.64 0 5.28 0 8 0 C8 2.64 8 5.28 8 8 C5.36 8 2.72 8 0 8 C0 5.36 0 2.72 0 0 Z " fill="#5A3735" transform="translate(52,80)"/>
<path d="M0 0 C2.64 0 5.28 0 8 0 C8 2.64 8 5.28 8 8 C5.36 8 2.72 8 0 8 C0 5.36 0 2.72 0 0 Z " fill="#5D3B39" transform="translate(86,71)"/>
<path d="M0 0 C2.64 0 5.28 0 8 0 C8 2.64 8 5.28 8 8 C5.36 8 2.72 8 0 8 C0 5.36 0 2.72 0 0 Z " fill="#5A3635" transform="translate(52,71)"/>
<path d="M0 0 C2.64 0 5.28 0 8 0 C8 2.64 8 5.28 8 8 C5.36 8 2.72 8 0 8 C0 5.36 0 2.72 0 0 Z " fill="#543131" transform="translate(103,62)"/>
<path d="M0 0 C2.64 0 5.28 0 8 0 C8 2.64 8 5.28 8 8 C5.36 8 2.72 8 0 8 C0 5.36 0 2.72 0 0 Z " fill="#5B3737" transform="translate(52,62)"/>
<path d="M0 0 C2.64 0 5.28 0 8 0 C8 2.64 8 5.28 8 8 C5.36 8 2.72 8 0 8 C0 5.36 0 2.72 0 0 Z " fill="#5B3737" transform="translate(86,62)"/>
<path d="M0 0 C0.33 0 0.66 0 1 0 C1 11.88 1 23.76 1 36 C3.31 36 5.62 36 8 36 C7.01 33.03 6.02 30.06 5 27 C7.63664741 29.63664741 9.255224 31.75970171 11 35 C11 35.66 11 36.32 11 37 C7.37 37 3.74 37 0 37 C0 24.79 0 12.58 0 0 Z " fill="#BCA2A0" transform="translate(77,61)"/>
<path d="M0 0 C0.33 0 0.66 0 1 0 C1 11.55 1 23.1 1 35 C7.435 34.505 7.435 34.505 14 34 C14 34.99 14 35.98 14 37 C12.515 37.495 12.515 37.495 11 38 C11 37.34 11 36.68 11 36 C5.555 36.495 5.555 36.495 0 37 C0 24.79 0 12.58 0 0 Z " fill="#735957" transform="translate(128,42)"/>
<path d="M0 0 C2.31 0 4.62 0 7 0 C7 2.64 7 5.28 7 8 C4.69 8 2.38 8 0 8 C0 5.36 0 2.72 0 0 Z " fill="#583736" transform="translate(78,126)"/>
<path d="M0 0 C2.31 0 4.62 0 7 0 C7 2.64 7 5.28 7 8 C4.69 8 2.38 8 0 8 C0 5.36 0 2.72 0 0 Z " fill="#593838" transform="translate(69,126)"/>
<path d="M0 0 C2.31 0 4.62 0 7 0 C7 2.64 7 5.28 7 8 C4.69 8 2.38 8 0 8 C0 5.36 0 2.72 0 0 Z " fill="#583434" transform="translate(95,126)"/>
<path d="M0 0 C2.31 0 4.62 0 7 0 C7 2.64 7 5.28 7 8 C4.69 8 2.38 8 0 8 C0 5.36 0 2.72 0 0 Z " fill="#593635" transform="translate(61,126)"/>
<path d="M0 0 C2.31 0 4.62 0 7 0 C7 2.64 7 5.28 7 8 C4.69 8 2.38 8 0 8 C0 5.36 0 2.72 0 0 Z " fill="#573537" transform="translate(44,126)"/>
<path d="M0 0 C2.31 0 4.62 0 7 0 C7 2.64 7 5.28 7 8 C4.69 8 2.38 8 0 8 C0 5.36 0 2.72 0 0 Z " fill="#5D3C3B" transform="translate(69,117)"/>
<path d="M0 0 C2.31 0 4.62 0 7 0 C7 2.64 7 5.28 7 8 C4.69 8 2.38 8 0 8 C0 5.36 0 2.72 0 0 Z " fill="#5B3637" transform="translate(78,117)"/>
<path d="M0 0 C2.31 0 4.62 0 7 0 C7 2.64 7 5.28 7 8 C4.69 8 2.38 8 0 8 C0 5.36 0 2.72 0 0 Z " fill="#583635" transform="translate(61,117)"/>
<path d="M0 0 C2.31 0 4.62 0 7 0 C7 2.64 7 5.28 7 8 C4.69 8 2.38 8 0 8 C0 5.36 0 2.72 0 0 Z " fill="#593536" transform="translate(44,117)"/>
<path d="M0 0 C2.31 0 4.62 0 7 0 C7 2.64 7 5.28 7 8 C4.69 8 2.38 8 0 8 C0 5.36 0 2.72 0 0 Z " fill="#573635" transform="translate(61,107)"/>
<path d="M0 0 C2.31 0 4.62 0 7 0 C7 2.64 7 5.28 7 8 C4.69 8 2.38 8 0 8 C0 5.36 0 2.72 0 0 Z " fill="#593637" transform="translate(44,107)"/>
<path d="M0 0 C2.31 0 4.62 0 7 0 C7 2.64 7 5.28 7 8 C4.69 8 2.38 8 0 8 C0 5.36 0 2.72 0 0 Z " fill="#583938" transform="translate(69,107)"/>
<path d="M0 0 C2.31 0 4.62 0 7 0 C7 2.64 7 5.28 7 8 C4.69 8 2.38 8 0 8 C0 5.36 0 2.72 0 0 Z " fill="#5A3434" transform="translate(78,107)"/>
<path d="M0 0 C2.31 0 4.62 0 7 0 C7 2.64 7 5.28 7 8 C4.69 8 2.38 8 0 8 C0 5.36 0 2.72 0 0 Z " fill="#5A3836" transform="translate(69,80)"/>
<path d="M0 0 C2.31 0 4.62 0 7 0 C7 2.64 7 5.28 7 8 C4.69 8 2.38 8 0 8 C0 5.36 0 2.72 0 0 Z " fill="#583534" transform="translate(61,80)"/>
<path d="M0 0 C2.31 0 4.62 0 7 0 C7 2.64 7 5.28 7 8 C4.69 8 2.38 8 0 8 C0 5.36 0 2.72 0 0 Z " fill="#583534" transform="translate(44,80)"/>
<path d="M0 0 C2.31 0 4.62 0 7 0 C7 2.64 7 5.28 7 8 C4.69 8 2.38 8 0 8 C0 5.36 0 2.72 0 0 Z " fill="#5B3838" transform="translate(69,71)"/>
<path d="M0 0 C2.31 0 4.62 0 7 0 C7 2.64 7 5.28 7 8 C4.69 8 2.38 8 0 8 C0 5.36 0 2.72 0 0 Z " fill="#593535" transform="translate(61,71)"/>
<path d="M0 0 C2.31 0 4.62 0 7 0 C7 2.64 7 5.28 7 8 C4.69 8 2.38 8 0 8 C0 5.36 0 2.72 0 0 Z " fill="#583534" transform="translate(44,71)"/>
<path d="M0 0 C2.31 0 4.62 0 7 0 C7 2.64 7 5.28 7 8 C4.69 8 2.38 8 0 8 C0 5.36 0 2.72 0 0 Z " fill="#593434" transform="translate(95,71)"/>
<path d="M0 0 C2.31 0 4.62 0 7 0 C7 2.64 7 5.28 7 8 C4.69 8 2.38 8 0 8 C0 5.36 0 2.72 0 0 Z " fill="#583433" transform="translate(78,71)"/>
<path d="M0 0 C2.31 0 4.62 0 7 0 C7 2.64 7 5.28 7 8 C4.69 8 2.38 8 0 8 C0 5.36 0 2.72 0 0 Z " fill="#583434" transform="translate(78,62)"/>
<path d="M0 0 C2.31 0 4.62 0 7 0 C7 2.64 7 5.28 7 8 C4.69 8 2.38 8 0 8 C0 5.36 0 2.72 0 0 Z " fill="#5A3737" transform="translate(69,62)"/>
<path d="M0 0 C2.31 0 4.62 0 7 0 C7 2.64 7 5.28 7 8 C4.69 8 2.38 8 0 8 C0 5.36 0 2.72 0 0 Z " fill="#5B3839" transform="translate(44,62)"/>
<path d="M0 0 C2.31 0 4.62 0 7 0 C7 2.64 7 5.28 7 8 C4.69 8 2.38 8 0 8 C0 5.36 0 2.72 0 0 Z " fill="#583434" transform="translate(95,62)"/>
<path d="M0 0 C2.31 0 4.62 0 7 0 C7 2.64 7 5.28 7 8 C4.69 8 2.38 8 0 8 C0 5.36 0 2.72 0 0 Z " fill="#5A3536" transform="translate(61,62)"/>
<path d="M0 0 C1.65 0 3.3 0 5 0 C5.33 1.32 5.66 2.64 6 4 C6.33 2.68 6.66 1.36 7 0 C7.66 0 8.32 0 9 0 C9 2.64 9 5.28 9 8 C7.35 8 5.7 8 4 8 C4 7.01 4 6.02 4 5 C3.34 5 2.68 5 2 5 C2 5.99 2 6.98 2 8 C1.34 8 0.68 8 0 8 C0 5.36 0 2.72 0 0 Z " fill="#857878" transform="translate(121,10)"/>
<path d="M0 0 C2.4375 0.1875 2.4375 0.1875 3.4375 1.1875 C3.625 3.625 3.625 3.625 3.4375 6.1875 C2.7775 6.8475 2.1175 7.5075 1.4375 8.1875 C-1.1875 7.8125 -1.1875 7.8125 -3.5625 7.1875 C-4.1875 4.8125 -4.1875 4.8125 -4.5625 2.1875 C-2.5625 0.1875 -2.5625 0.1875 0 0 Z " fill="#625556" transform="translate(81.5625,182.8125)"/>
<path d="M0 0 C4.70588235 0.70588235 4.70588235 0.70588235 6 2 C6.125 4.5 6.125 4.5 6 7 C5 8 5 8 1.9375 8.0625 C0.968125 8.041875 -0.00125 8.02125 -1 8 C-1.04241723 5.66705225 -1.04092937 3.33297433 -1 1 C-0.67 0.67 -0.34 0.34 0 0 Z " fill="#695D5E" transform="translate(59,10)"/>
<path d="M0 0 C2.31 0 4.62 0 7 0 C7 2.64 7 5.28 7 8 C4.69 7.67 2.38 7.34 0 7 C0 4.69 0 2.38 0 0 Z " fill="#583636" transform="translate(104,71)"/>
<path d="M0 0 C0.33 0 0.66 0 1 0 C1 2.64 1 5.28 1 8 C3.64 8 6.28 8 9 8 C9 8.66 9 9.32 9 10 C6.36 10 3.72 10 1 10 C1 12.64 1 15.28 1 18 C0.67 18 0.34 18 0 18 C0 15.36 0 12.72 0 10 C-2.31 10 -4.62 10 -7 10 C-7 9.34 -7 8.68 -7 8 C-4.69 8 -2.38 8 0 8 C0 5.36 0 2.72 0 0 Z " fill="#815C5D" transform="translate(51,107)"/>
<path d="M0 0 C2.25998595 3.59462331 2.20868087 6.56595675 2.125 10.75 C2.10695313 11.92046875 2.08890625 13.0909375 2.0703125 14.296875 C2.03550781 15.63492188 2.03550781 15.63492188 2 17 C1.34 17 0.68 17 0 17 C-2.2647694 12.47046119 -2.31552523 8.96952231 -2 4 C-1 1.5 -1 1.5 0 0 Z " fill="#E8DCD9" transform="translate(105,84)"/>
<path d="M0 0 C0.33 0 0.66 0 1 0 C1 2.64 1 5.28 1 8 C3.64 8 6.28 8 9 8 C9 8.33 9 8.66 9 9 C6.36 9 3.72 9 1 9 C1 11.64 1 14.28 1 17 C3.31 17 5.62 17 8 17 C8 17.33 8 17.66 8 18 C3.05 18 -1.9 18 -7 18 C-7 17.67 -7 17.34 -7 17 C-4.69 17 -2.38 17 0 17 C0 14.36 0 11.72 0 9 C-2.31 9 -4.62 9 -7 9 C-7 8.67 -7 8.34 -7 8 C-4.69 8 -2.38 8 0 8 C0 5.36 0 2.72 0 0 Z " fill="#7B5E5D" transform="translate(51,71)"/>
<path d="M0 0 C0.33 0 0.66 0 1 0 C1 2.64 1 5.28 1 8 C3.31 8 5.62 8 8 8 C8 8.66 8 9.32 8 10 C5.69 10 3.38 10 1 10 C1 12.64 1 15.28 1 18 C0.67 18 0.34 18 0 18 C0 15.36 0 12.72 0 10 C-2.31 10 -4.62 10 -7 10 C-7 9.34 -7 8.68 -7 8 C-4.69 8 -2.38 8 0 8 C0 5.36 0 2.72 0 0 Z " fill="#82605F" transform="translate(68,107)"/>
<path d="M0 0 C0.639375 0.2475 1.27875 0.495 1.9375 0.75 C2.98199911 3.88349732 2.87173645 4.73968256 1.9375 7.75 C-0.0425 7.75 -2.0225 7.75 -4.0625 7.75 C-4.0625 5.44 -4.0625 3.13 -4.0625 0.75 C-2.0625 -0.25 -2.0625 -0.25 0 0 Z " fill="#563232" transform="translate(91.0625,107.25)"/>
<path d="M0 0 C4.455 0.99 4.455 0.99 9 2 C10 6 10 6 8.78515625 8.140625 C8.21667969 8.83671875 7.64820312 9.5328125 7.0625 10.25 C6.49660156 10.95640625 5.93070312 11.6628125 5.34765625 12.390625 C4.90292969 12.92171875 4.45820312 13.4528125 4 14 C2.35 13.67 0.7 13.34 -1 13 C-0.01 12.34 0.98 11.68 2 11 C4.68767578 8.56249975 4.68767578 8.56249975 7 6 C7 5.34 7 4.68 7 4 C5.02 4 3.04 4 1 4 C0.67 2.68 0.34 1.36 0 0 Z " fill="#67585A" transform="translate(109,101)"/>
<path d="M0 0 C0.33 0 0.66 0 1 0 C1 2.64 1 5.28 1 8 C3.31 8 5.62 8 8 8 C8 8.33 8 8.66 8 9 C5.69 9 3.38 9 1 9 C1 11.64 1 14.28 1 17 C3.31 17 5.62 17 8 17 C8 17.33 8 17.66 8 18 C3.05 18 -1.9 18 -7 18 C-7 17.67 -7 17.34 -7 17 C-4.69 17 -2.38 17 0 17 C0 14.36 0 11.72 0 9 C-2.31 9 -4.62 9 -7 9 C-7 8.67 -7 8.34 -7 8 C-4.69 8 -2.38 8 0 8 C0 5.36 0 2.72 0 0 Z " fill="#7B6060" transform="translate(68,71)"/>
<path d="M0 0 C2.97 0 5.94 0 9 0 C9 0.66 9 1.32 9 2 C9.66 2 10.32 2 11 2 C11 1.34 11 0.68 11 0 C11.66 0.33 12.32 0.66 13 1 C12.34 3.31 11.68 5.62 11 8 C10.34 8 9.68 8 9 8 C8.34 5.69 7.68 3.38 7 1 C6.01 1 5.02 1 4 1 C4 3.31 4 5.62 4 8 C3.34 8 2.68 8 2 8 C2 6.02 2 4.04 2 2 C1.34 2 0.68 2 0 2 C0 1.34 0 0.68 0 0 Z " fill="#7D7575" transform="translate(41,10)"/>
<path d="M0 0 C3 1 3 1 4 3 C4.33 2.01 4.66 1.02 5 0 C5.66 0 6.32 0 7 0 C7 2.64 7 5.28 7 8 C6.01 8 5.02 8 4 8 C3.67 7.34 3.34 6.68 3 6 C2.67 6.66 2.34 7.32 2 8 C1.34 8 0.68 8 0 8 C0 5.36 0 2.72 0 0 Z " fill="#7A6869" transform="translate(132,10)"/>
<path d="M0 0 C0.33 0 0.66 0 1 0 C1 2.97 1 5.94 1 9 C-1.64 9.33 -4.28 9.66 -7 10 C-7.33 8.68 -7.66 7.36 -8 6 C-7.67 6.66 -7.34 7.32 -7 8 C-6.34 8 -5.68 8 -5 8 C-4.731875 7.4225 -4.46375 6.845 -4.1875 6.25 C-2.97790559 3.95813691 -1.64363461 2.00094648 0 0 Z " fill="#886B6A" transform="translate(110,117)"/>
<path d="M0 0 C2.31 0 4.62 0 7 0 C7 1.98 7 3.96 7 6 C4.69 6 2.38 6 0 6 C0 4.02 0 2.04 0 0 Z " fill="#513133" transform="translate(78,100)"/>
<path d="M0 0 C3 1 3 1 4 3 C4.33 2.01 4.66 1.02 5 0 C5.66 0 6.32 0 7 0 C7 2.64 7 5.28 7 8 C6.01 8 5.02 8 4 8 C3.67 7.34 3.34 6.68 3 6 C2.67 6.66 2.34 7.32 2 8 C1.34 8 0.68 8 0 8 C0 5.36 0 2.72 0 0 Z " fill="#786969" transform="translate(81,10)"/>
<path d="M0 0 C0.66 0 1.32 0 2 0 C2.33 1.32 2.66 2.64 3 4 C3.33 3.01 3.66 2.02 4 1 C4.66 1 5.32 1 6 1 C6 3.31 6 5.62 6 8 C4.34385343 8.38218767 2.67542976 8.71395102 1 9 C0 8 0 8 -0.09765625 6.15234375 C-0.06510417 4.1015625 -0.03255208 2.05078125 0 0 Z " fill="#968889" transform="translate(103,182)"/>
<path d="M0 0 C0.66 0 1.32 0 2 0 C2 1.65 2 3.3 2 5 C2.66 5 3.32 5 4 5 C4.33 3.68 4.66 2.36 5 1 C5.103125 1.639375 5.20625 2.27875 5.3125 2.9375 C5.6528125 3.9584375 5.6528125 3.9584375 6 5 C6.99 5.33 7.98 5.66 9 6 C8.67 6.66 8.34 7.32 8 8 C3.56486311 8 0.26616316 7.13764351 -4 6 C-3.34 4.68 -2.68 3.36 -2 2 C-1.34 2 -0.68 2 0 2 C0 1.34 0 0.68 0 0 Z " fill="#EFE5E5" transform="translate(79,13)"/>
<path d="M0 0 C0.66 1.32 1.32 2.64 2 4 C2.99 4 3.98 4 5 4 C5 5.32 5 6.64 5 8 C5.66 8.33 6.32 8.66 7 9 C3.52176885 10.15941038 1.54104422 9.70820884 -2 9 C-2.33 9.66 -2.66 10.32 -3 11 C-6 10 -6 10 -8 8 C-5.36 7.67 -2.72 7.34 0 7 C0 4.69 0 2.38 0 0 Z " fill="#EAE6E5" transform="translate(38,10)"/>
<path d="M0 0 C0.99 0 1.98 0 3 0 C3.33 0.66 3.66 1.32 4 2 C4.33 1.34 4.66 0.68 5 0 C5.66 0 6.32 0 7 0 C7 2.64 7 5.28 7 8 C6.01 8 5.02 8 4 8 C3.34 6.68 2.68 5.36 2 4 C1.34 5.32 0.68 6.64 0 8 C0 5.36 0 2.72 0 0 Z " fill="#6E5E5C" transform="translate(128,183)"/>
<path d="M0 0 C-1 3 -1 3 -3 4 C-4.99960012 4.039992 -7.00047242 4.04346799 -9 4 C-8.01 5.98 -7.02 7.96 -6 10 C-6.99 10.33 -7.98 10.66 -9 11 C-9.66 9.02 -10.32 7.04 -11 5 C-7.40395171 1.01866082 -5.30153148 0 0 0 Z " fill="#988584" transform="translate(103,101)"/>
<path d="M0 0 C0.33 0 0.66 0 1 0 C1 2.64 1 5.28 1 8 C3.64 8 6.28 8 9 8 C9 8.66 9 9.32 9 10 C3.03654233 11.0006709 -1.28728907 11.0662997 -7 9 C-7 8.67 -7 8.34 -7 8 C-4.69 8 -2.38 8 0 8 C0 5.36 0 2.72 0 0 Z " fill="#785755" transform="translate(85,71)"/>
<path d="M0 0 C1.65 0 3.3 0 5 0 C5.97608217 2.92824652 6.08226668 4.95613276 6 8 C5.34 7.67 4.68 7.34 4 7 C4 6.34 4 5.68 4 5 C3.34 5 2.68 5 2 5 C2 5.99 2 6.98 2 8 C1.34 8 0.68 8 0 8 C0 5.36 0 2.72 0 0 Z " fill="#726364" transform="translate(95,183)"/>
<path d="M0 0 C0.66 0 1.32 0 2 0 C3.62072601 3.88974242 4.73072517 7.55264778 5.5 11.6875 C5.77098331 13.95155042 5.77098331 13.95155042 7 15 C7 15.66 7 16.32 7 17 C5.02 16.67 3.04 16.34 1 16 C1.01160156 15.26394531 1.02320312 14.52789062 1.03515625 13.76953125 C1.04417969 12.79371094 1.05320312 11.81789063 1.0625 10.8125 C1.07410156 9.84957031 1.08570312 8.88664062 1.09765625 7.89453125 C1.00486622 5.14423487 0.62111685 2.67520409 0 0 Z " fill="#6C504F" transform="translate(105,83)"/>
<path d="M0 0 C0.66 0 1.32 0 2 0 C2 1.65 2 3.3 2 5 C3.32 5 4.64 5 6 5 C5.67 5.99 5.34 6.98 5 8 C3.88625 7.95875 2.7725 7.9175 1.625 7.875 C-2.04366025 7.58878141 -2.04366025 7.58878141 -4 10 C-4.33 9.01 -4.66 8.02 -5 7 C-4.34 7 -3.68 7 -3 7 C-3 6.01 -3 5.02 -3 4 C-2.01 4 -1.02 4 0 4 C0 2.68 0 1.36 0 0 Z " fill="#E7E0E1" transform="translate(13,11)"/>
<path d="M0 0 C0.99 0 1.98 0 3 0 C4.25664978 2.90600261 5 4.79604584 5 8 C4.34 8 3.68 8 3 8 C3 7.34 3 6.68 3 6 C1.35 6.66 -0.3 7.32 -2 8 C-1.125 2.25 -1.125 2.25 0 0 Z " fill="#7A6A6A" transform="translate(138,183)"/>
<path d="M0 0 C-0.33 0.99 -0.66 1.98 -1 3 C-3.31104818 4.05047644 -5.64583651 5.05007438 -8 6 C-8.66 6.66 -9.32 7.32 -10 8 C-10.33 6.02 -10.66 4.04 -11 2 C-7.17010894 0.19769832 -4.21878192 -0.19622241 0 0 Z " fill="#552F2E" transform="translate(139,78)"/>
<path d="M0 0 C0.66 0 1.32 0 2 0 C2 1.98 2 3.96 2 6 C2.99 6 3.98 6 5 6 C5 4.02 5 2.04 5 0 C5.66 0 6.32 0 7 0 C7 2.31 7 4.62 7 7 C5.0085944 7.38133299 3.00720923 7.71325582 1 8 C0 7 0 7 -0.0625 3.4375 C-0.041875 2.303125 -0.02125 1.16875 0 0 Z " fill="#6C5F60" transform="translate(10,183)"/>
<path d="M0 0 C0.78375 0.04125 1.5675 0.0825 2.375 0.125 C2.375 0.785 2.375 1.445 2.375 2.125 C0.725 2.125 -0.925 2.125 -2.625 2.125 C-2.27713292 4.10036745 -2.27713292 4.10036745 -1.625 6.125 C-0.965 6.455 -0.305 6.785 0.375 7.125 C0.045 6.135 -0.285 5.145 -0.625 4.125 C0.365 4.125 1.355 4.125 2.375 4.125 C2.375 5.445 2.375 6.765 2.375 8.125 C0.37545254 8.16754356 -1.62541636 8.16580783 -3.625 8.125 C-4.625 7.125 -4.625 7.125 -4.8125 4.6875 C-4.54653904 1.05270021 -3.63803315 0.17323967 0 0 Z " fill="#74696A" transform="translate(144.625,9.875)"/>
<path d="M0 0 C1.65 0 3.3 0 5 0 C5 2.64 5 5.28 5 8 C4.34 7.67 3.68 7.34 3 7 C3 6.34 3 5.68 3 5 C2.34 5 1.68 5 1 5 C0.67 5.99 0.34 6.98 0 8 C0 5.36 0 2.72 0 0 Z " fill="#746466" transform="translate(45,183)"/>
<path d="M0 0 C1.65 0 3.3 0 5 0 C5 1.65 5 3.3 5 5 C4.01 5 3.02 5 2 5 C2 5.66 2 6.32 2 7 C2.99 7.33 3.98 7.66 5 8 C3.35 8 1.7 8 0 8 C0 5.36 0 2.72 0 0 Z " fill="#7D7372" transform="translate(115,10)"/>
<path d="M0 0 C0.66 0 1.32 0 2 0 C2 0.66 2 1.32 2 2 C2.66 2.33 3.32 2.66 4 3 C4 3.66 4 4.32 4 5 C3.34 5 2.68 5 2 5 C2 5.66 2 6.32 2 7 C4.97 7.495 4.97 7.495 8 8 C8 8.33 8 8.66 8 9 C5.66705225 9.04241723 3.33297433 9.04092937 1 9 C0 8 0 8 -0.09765625 6.15234375 C-0.06510417 4.1015625 -0.03255208 2.05078125 0 0 Z " fill="#745251" transform="translate(102,71)"/>
<path d="M0 0 C0.33 0 0.66 0 1 0 C1 2.31 1 4.62 1 7 C1.99 7 2.98 7 4 7 C4 6.34 4 5.68 4 5 C4.66 4.67 5.32 4.34 6 4 C7.13350534 1.98330173 7.13350534 1.98330173 8 0 C8 2.64 8 5.28 8 8 C5.36 8 2.72 8 0 8 C0 5.36 0 2.72 0 0 Z " fill="#614141" transform="translate(103,62)"/>
<path d="M0 0 C1.65 0 3.3 0 5 0 C4.67 1.65 4.34 3.3 4 5 C3.34 5 2.68 5 2 5 C2 5.66 2 6.32 2 7 C2.99 7.33 3.98 7.66 5 8 C3.35 8 1.7 8 0 8 C0 5.36 0 2.72 0 0 Z " fill="#7B7170" transform="translate(75,10)"/>
<path d="M0 0 C0.99 0 1.98 0 3 0 C5 3 5 3 5 7 C3.35 7 1.7 7 0 7 C0 4.69 0 2.38 0 0 Z " fill="#EAE2E2" transform="translate(45,11)"/>
<path d="M0 0 C0.99 0.33 1.98 0.66 3 1 C3.33 3.31 3.66 5.62 4 8 C3.67 7.34 3.34 6.68 3 6 C1.68 6 0.36 6 -1 6 C-1.33 6.66 -1.66 7.32 -2 8 C-1.125 2.25 -1.125 2.25 0 0 Z " fill="#726262" transform="translate(16,10)"/>
<path d="M0 0 C0.66 0 1.32 0 2 0 C2.66 0.99 3.32 1.98 4 3 C4.33 2.01 4.66 1.02 5 0 C5.66 0 6.32 0 7 0 C6.34 2.64 5.68 5.28 5 8 C4.01 8 3.02 8 2 8 C1.34 5.36 0.68 2.72 0 0 Z " fill="#6C6160" transform="translate(30,183)"/>
<path d="M0 0 C3 1 3 1 4 3 C4.66 2.01 5.32 1.02 6 0 C6 2.64 6 5.28 6 8 C5.34 8 4.68 8 4 8 C3.34 6.68 2.68 5.36 2 4 C1.34 5.32 0.68 6.64 0 8 C0 5.36 0 2.72 0 0 Z " fill="#594546" transform="translate(19,183)"/>
<path d="M0 0 C0.33 0 0.66 0 1 0 C1 2.64 1 5.28 1 8 C0.34 7.67 -0.32 7.34 -1 7 C-2.32 7.99 -3.64 8.98 -5 10 C-5.66 9.67 -6.32 9.34 -7 9 C-5.85793642 7.49712782 -4.71125043 5.99776716 -3.5625 4.5 C-2.92441406 3.6646875 -2.28632812 2.829375 -1.62890625 1.96875 C-0.82259766 0.99421875 -0.82259766 0.99421875 0 0 Z " fill="#ECE0E0" transform="translate(127,95)"/>
<path d="M0 0 C5.28 0 10.56 0 16 0 C16 0.66 16 1.32 16 2 C10.47032059 2.71033431 5.50016964 3.30267176 0 2 C0 1.34 0 0.68 0 0 Z " fill="#917170" transform="translate(95,79)"/>
<path d="M0 0 C3 1 3 1 4 3 C4.66 2.01 5.32 1.02 6 0 C6 2.64 6 5.28 6 8 C5.34 8 4.68 8 4 8 C3.34 6.68 2.68 5.36 2 4 C1.34 5.32 0.68 6.64 0 8 C0 5.36 0 2.72 0 0 Z " fill="#5C494B" transform="translate(101,10)"/>
<path d="M0 0 C0.99 0 1.98 0 3 0 C3 2.31 3 4.62 3 7 C3.99 7.33 4.98 7.66 6 8 C3.69 8 1.38 8 -1 8 C-0.67 5.36 -0.34 2.72 0 0 Z " fill="#A29597" transform="translate(35,10)"/>
<path d="M0 0 C0.66 0 1.32 0 2 0 C2 0.99 2 1.98 2 3 C2.99 3 3.98 3 5 3 C5.33 2.01 5.66 1.02 6 0 C6 2.64 6 5.28 6 8 C5.67 6.68 5.34 5.36 5 4 C4.01 4 3.02 4 2 4 C2 5.32 2 6.64 2 8 C1.34 8 0.68 8 0 8 C0 5.36 0 2.72 0 0 Z " fill="#574847" transform="translate(111,183)"/>
<path d="M0 0 C0.99 0 1.98 0 3 0 C5 3 5 3 5 7 C3.33333333 7 1.66666667 7 0 7 C0 4.69 0 2.38 0 0 Z " fill="#ECE3E4" transform="translate(65,184)"/>
<path d="M0 0 C0.33 0.66 0.66 1.32 1 2 C1.66 2.33 2.32 2.66 3 3 C2.34 3 1.68 3 1 3 C1 5.64 1 8.28 1 11 C0.01 10.67 -0.98 10.34 -2 10 C-2 7.03 -2 4.06 -2 1 C-1.34 0.67 -0.68 0.34 0 0 Z " fill="#E5DBDB" transform="translate(110,180)"/>
<path d="M0 0 C1.65 0 3.3 0 5 0 C4.01 0.33 3.02 0.66 2 1 C2 1.66 2 2.32 2 3 C2.66 3 3.32 3 4 3 C4 3.66 4 4.32 4 5 C3.34 5 2.68 5 2 5 C2 5.66 2 6.32 2 7 C2.99 7.33 3.98 7.66 5 8 C3.35 8 1.7 8 0 8 C0 5.36 0 2.72 0 0 Z " fill="#746566" transform="translate(109,10)"/>
<path d="M0 0 C0.66 0 1.32 0 2 0 C2.33 2.97 2.66 5.94 3 9 C0.36 9 -2.28 9 -5 9 C-4.0409375 8.7215625 -4.0409375 8.7215625 -3.0625 8.4375 C-0.57873787 7.05753944 -0.57873787 7.05753944 -0.25 3.375 C-0.1675 2.26125 -0.085 1.1475 0 0 Z " fill="#EAE0DE" transform="translate(126,183)"/>
<path d="M0 0 C0.99 0 1.98 0 3 0 C3.103125 1.11375 3.20625 2.2275 3.3125 3.375 C3.539375 4.57125 3.76625 5.7675 4 7 C4.99 7.66 5.98 8.32 7 9 C4.03 8.505 4.03 8.505 1 8 C0 1.125 0 1.125 0 0 Z " fill="#DDD1D1" transform="translate(100,183)"/>
<path d="M0 0 C0.66 0.66 1.32 1.32 2 2 C1.9765625 4.1640625 1.9765625 4.1640625 1.625 6.625 C1.51414062 7.44226563 1.40328125 8.25953125 1.2890625 9.1015625 C1.19367187 9.72804687 1.09828125 10.35453125 1 11 C-0.65 11.33 -2.3 11.66 -4 12 C-3.34 11.67 -2.68 11.34 -2 11 C-1.61866701 9.0085944 -1.28674418 7.00720923 -1 5 C-0.67 4.34 -0.34 3.68 0 3 C-0.66 2.67 -1.32 2.34 -2 2 C-1.34 2 -0.68 2 0 2 C0 1.34 0 0.68 0 0 Z " fill="#F1E8E7" transform="translate(37,180)"/>
<path d="M0 0 C0.33 0.66 0.66 1.32 1 2 C1.66 2.33 2.32 2.66 3 3 C2.34 3 1.68 3 1 3 C1.66 5.64 2.32 8.28 3 11 C1.68 11 0.36 11 -1 11 C-1.33 8.03 -1.66 5.06 -2 2 C-1.34 2 -0.68 2 0 2 C0 1.34 0 0.68 0 0 Z " fill="#D6CBC9" transform="translate(118,180)"/>
<path d="M0 0 C1.65 0 3.3 0 5 0 C4.01 0.33 3.02 0.66 2 1 C2 1.66 2 2.32 2 3 C2.99 3 3.98 3 5 3 C5 3.66 5 4.32 5 5 C4.01 5 3.02 5 2 5 C2 5.99 2 6.98 2 8 C1.34 8 0.68 8 0 8 C0 5.36 0 2.72 0 0 Z " fill="#786B6C" transform="translate(86,183)"/>
<path d="M0 0 C2.63664741 2.63664741 4.255224 4.75970171 6 8 C6 8.66 6 9.32 6 10 C2.7 10 -0.6 10 -4 10 C-4 9.67 -4 9.34 -4 9 C-1.69 9 0.62 9 3 9 C2.01 6.03 1.02 3.06 0 0 Z " fill="#A48683" transform="translate(82,88)"/>
<path d="M0 0 C1.32 0 2.64 0 4 0 C4.33 1.65 4.66 3.3 5 5 C4.01 5.495 4.01 5.495 3 6 C0.875 5.0625 0.875 5.0625 -1 4 C-0.67 2.68 -0.34 1.36 0 0 Z " fill="#ECE0E0" transform="translate(24,12)"/>
<path d="M0 0 C1.65 0 3.3 0 5 0 C4.01 0.33 3.02 0.66 2 1 C2 1.66 2 2.32 2 3 C2.66 3.33 3.32 3.66 4 4 C3.34 4 2.68 4 2 4 C2 4.99 2 5.98 2 7 C2.99 7.33 3.98 7.66 5 8 C3.35 8 1.7 8 0 8 C0 5.36 0 2.72 0 0 Z " fill="#5B4F4E" transform="translate(38,183)"/>
<path d="M0 0 C1.98 0 3.96 0 6 0 C5.67 1.65 5.34 3.3 5 5 C3.68 5 2.36 5 1 5 C0.67 3.35 0.34 1.7 0 0 Z " fill="#573433" transform="translate(69,117)"/>
<path d="M0 0 C3.2542015 2.83430453 4.5206753 4.68607774 5 9 C3.68 8.67 2.36 8.34 1 8 C0.17361624 5.10765685 0 3.11257569 0 0 Z " fill="#5F3F3F" transform="translate(100,92)"/>
<path d="M0 0 C1.98 0 3.96 0 6 0 C6 1.32 6 2.64 6 4 C4.02 4 2.04 4 0 4 C0 2.68 0 1.36 0 0 Z " fill="#573130" transform="translate(87,71)"/>
<path d="M0 0 C0.33 0 0.66 0 1 0 C1 1.98 1 3.96 1 6 C0.01 6 -0.98 6 -2 6 C-2 6.66 -2 7.32 -2 8 C-3.65 7.67 -5.3 7.34 -7 7 C-6.34 6.67 -5.68 6.34 -5 6 C-5 4.35 -5 2.7 -5 1 C-4.67 1.99 -4.34 2.98 -4 4 C-3.01 3.67 -2.02 3.34 -1 3 C-0.67 2.01 -0.34 1.02 0 0 Z " fill="#E3DEDE" transform="translate(57,12)"/>
<path d="M0 0 C1.65 0 3.3 0 5 0 C5 0.66 5 1.32 5 2 C4.01 2 3.02 2 2 2 C2 2.66 2 3.32 2 4 C2.66 4.33 3.32 4.66 4 5 C3.34 5 2.68 5 2 5 C2 5.99 2 6.98 2 8 C1.34 8 0.68 8 0 8 C0 5.36 0 2.72 0 0 Z " fill="#7D6E6F" transform="translate(66,10)"/>
<path d="M0 0 C1.98 0 3.96 0 6 0 C5.34 1.32 4.68 2.64 4 4 C4 3.34 4 2.68 4 2 C3.34 2 2.68 2 2 2 C2 3.65 2 5.3 2 7 C1.34 7 0.68 7 0 7 C0 4.69 0 2.38 0 0 Z " fill="#52302F" transform="translate(78,126)"/>
<path d="M0 0 C0.66 0 1.32 0 2 0 C2.99 2.31 3.98 4.62 5 7 C3.35 7 1.7 7 0 7 C0 4.69 0 2.38 0 0 Z " fill="#523231" transform="translate(95,117)"/>
<path d="M0 0 C0.99 0 1.98 0 3 0 C3 0.99 3 1.98 3 3 C6.63 3 10.26 3 14 3 C14 3.33 14 3.66 14 4 C12.06403108 4.22211116 10.12610672 4.42722992 8.1875 4.625 C6.56908203 4.79902344 6.56908203 4.79902344 4.91796875 4.9765625 C2 5 2 5 -1 3 C-0.34 3 0.32 3 1 3 C0.67 2.01 0.34 1.02 0 0 Z " fill="#F8EDE9" transform="translate(74,95)"/>
<path d="M0 0 C0 0.99 0 1.98 0 3 C-0.99 3.33 -1.98 3.66 -3 4 C-3 3.34 -3 2.68 -3 2 C-6.63 2.33 -10.26 2.66 -14 3 C-9.12312306 0.56156153 -5.42012919 0 0 0 Z " fill="#A68281" transform="translate(142,76)"/>
<path d="M0 0 C1.32 0 2.64 0 4 0 C4 1.98 4 3.96 4 6 C2.68 6 1.36 6 0 6 C0 4.02 0 2.04 0 0 Z " fill="#E9DBDC" transform="translate(40,184)"/>
<path d="M0 0 C0.99 0.33 1.98 0.66 3 1 C4.1875 3.5625 4.1875 3.5625 5 6 C3.35 6 1.7 6 0 6 C0 4.02 0 2.04 0 0 Z " fill="#5C393A" transform="translate(86,100)"/>
<path d="M0 0 C0.99 0.33 1.98 0.66 3 1 C2.67 1.99 2.34 2.98 2 4 C2.99 4.33 3.98 4.66 5 5 C2.69 5.33 0.38 5.66 -2 6 C-2 3 -2 3 0 0 Z " fill="#522D2D" transform="translate(99,96)"/>
<path d="M0 0 C0.94875 0.350625 1.8975 0.70125 2.875 1.0625 C5.87060172 2.35026777 5.87060172 2.35026777 8 1 C7.25 2.9375 7.25 2.9375 6 5 C3.875 5.75 3.875 5.75 2 6 C1.34 4.02 0.68 2.04 0 0 Z " fill="#532F2E" transform="translate(121,90)"/>
<path d="M0 0 C0 1.32 0 2.64 0 4 C-1.98 4.33 -3.96 4.66 -6 5 C-6 3.68 -6 2.36 -6 1 C-3 0 -3 0 0 0 Z " fill="#563332" transform="translate(50,65)"/>
<path d="M0 0 C0 2.64 0 5.28 0 8 C-1.32 7.67 -2.64 7.34 -4 7 C-4 6.34 -4 5.68 -4 5 C-3.34 5 -2.68 5 -2 5 C-2 4.34 -2 3.68 -2 3 C-2.66 3 -3.32 3 -4 3 C-4 2.34 -4 1.68 -4 1 C-1 0 -1 0 0 0 Z " fill="#EAE0DF" transform="translate(115,10)"/>
<path d="M0 0 C0.99 0 1.98 0 3 0 C3 1.65 3 3.3 3 5 C1.68 5 0.36 5 -1 5 C-0.67 3.35 -0.34 1.7 0 0 Z " fill="#E9DDDD" transform="translate(80,184)"/>
<path d="M0 0 C1.65 0 3.3 0 5 0 C5.33 1.32 5.66 2.64 6 4 C4.35 4 2.7 4 1 4 C0.67 2.68 0.34 1.36 0 0 Z " fill="#523333" transform="translate(104,130)"/>
<path d="M0 0 C0.66 0.33 1.32 0.66 2 1 C0.02 3.97 0.02 3.97 -2 7 C-2.66 6.67 -3.32 6.34 -4 6 C-4.625 3.9375 -4.625 3.9375 -5 2 C-2.625 0.9375 -2.625 0.9375 0 0 Z " fill="#5C3E3E" transform="translate(125,95)"/>
<path d="M0 0 C1.32 0.33 2.64 0.66 4 1 C3.67 1.66 3.34 2.32 3 3 C3.89163577 5.11683841 3.89163577 5.11683841 5 7 C3.35 7 1.7 7 0 7 C0 4.69 0 2.38 0 0 Z " fill="#4E3030" transform="translate(78,90)"/>
<path d="M0 0 C1.32 0.33 2.64 0.66 4 1 C3.01 2.485 3.01 2.485 2 4 C2.66 4.33 3.32 4.66 4 5 C3.34 5 2.68 5 2 5 C2 5.99 2 6.98 2 8 C1.34 8 0.68 8 0 8 C0 5.36 0 2.72 0 0 Z " fill="#706567" transform="translate(8,10)"/>
<path d="M0 0 C2.2477975 2.05233685 3.0022242 3.00667261 4 6 C2.02 6.33 0.04 6.66 -2 7 C-1.34 4.69 -0.68 2.38 0 0 Z " fill="#F4F1F0" transform="translate(52,177)"/>
<path d="M0 0 C0.66 0.33 1.32 0.66 2 1 C3.99960012 1.039992 6.00047242 1.04346799 8 1 C6.6875 3 6.6875 3 5 5 C4.01 5 3.02 5 2 5 C2 4.34 2 3.68 2 3 C1.01 2.67 0.02 2.34 -1 2 C-0.67 1.34 -0.34 0.68 0 0 Z " fill="#522F30" transform="translate(100,114)"/>
<path d="M0 0 C2.31 0.66 4.62 1.32 7 2 C7 2.66 7 3.32 7 4 C5.02 4 3.04 4 1 4 C0.67 2.68 0.34 1.36 0 0 Z " fill="#887775" transform="translate(109,101)"/>
<path d="M0 0 C0.33 0 0.66 0 1 0 C1 1.98 1 3.96 1 6 C-0.65 6 -2.3 6 -4 6 C-3.67 4.68 -3.34 3.36 -3 2 C-2.34 2 -1.68 2 -1 2 C-0.67 1.34 -0.34 0.68 0 0 Z " fill="#5C3938" transform="translate(84,100)"/>
<path d="M0 0 C-0.33 1.32 -0.66 2.64 -1 4 C-1.66 3.67 -2.32 3.34 -3 3 C-3.33 3.66 -3.66 4.32 -4 5 C-4 4.34 -4 3.68 -4 3 C-4.99 3 -5.98 3 -7 3 C-7 2.34 -7 1.68 -7 1 C-4.50935112 0.31292445 -2.62113708 0 0 0 Z " fill="#F2EAEB" transform="translate(95,183)"/>
<path d="M0 0 C2.5 2.3125 2.5 2.3125 5 5 C5 5.99 5 6.98 5 8 C4.01 8 3.02 8 2 8 C2 6.68 2 5.36 2 4 C1.34 4 0.68 4 0 4 C0 2.68 0 1.36 0 0 Z " fill="#F5EEEC" transform="translate(111,178)"/>
<path d="M0 0 C0.66 0 1.32 0 2 0 C2 0.66 2 1.32 2 2 C3.32 2.33 4.64 2.66 6 3 C5.67 4.65 5.34 6.3 5 8 C2.74754119 5.31158141 1.11786042 3.35358125 0 0 Z " fill="#613C3B" transform="translate(81,85)"/>
<path d="M0 0 C0.268125 0.639375 0.53625 1.27875 0.8125 1.9375 C1.88667752 4.33131686 1.88667752 4.33131686 5 5 C4.67 5.66 4.34 6.32 4 7 C2.68 6.34 1.36 5.68 0 5 C0 3.35 0 1.7 0 0 Z M-2 5 C-1.34 5 -0.68 5 0 5 C0 5.66 0 6.32 0 7 C-0.66 7 -1.32 7 -2 7 C-2 6.34 -2 5.68 -2 5 Z " fill="#F4EEED" transform="translate(83,14)"/>
<path d="M0 0 C1.32 0 2.64 0 4 0 C4 2.31 4 4.62 4 7 C3.34 6.67 2.68 6.34 2 6 C2 5.34 2 4.68 2 4 C1.34 4 0.68 4 0 4 C0 2.68 0 1.36 0 0 Z " fill="#857274" transform="translate(97,184)"/>
<path d="M0 0 C2.125 0.375 2.125 0.375 4 1 C3.67 2.98 3.34 4.96 3 7 C1.35 5.35 -0.3 3.7 -2 2 C-1.34 1.34 -0.68 0.68 0 0 Z " fill="#E3D6D6" transform="translate(21,181)"/>
<path d="M0 0 C0.2475 0.61875 0.495 1.2375 0.75 1.875 C2.20628639 4.35068687 3.37812506 4.95125002 6 6 C4.02 6.66 2.04 7.32 0 8 C0 5.36 0 2.72 0 0 Z " fill="#522F2F" transform="translate(78,117)"/>
<path d="M0 0 C0.33 0.66 0.66 1.32 1 2 C1.66 2 2.32 2 3 2 C3 2.66 3 3.32 3 4 C4.32 3.67 5.64 3.34 7 3 C7.33 3.66 7.66 4.32 8 5 C6.5199159 4.88637738 5.04089926 4.75877092 3.5625 4.625 C2.73878906 4.55539063 1.91507812 4.48578125 1.06640625 4.4140625 C0.38449219 4.27742188 -0.29742187 4.14078125 -1 4 C-1.33 3.34 -1.66 2.68 -2 2 C-1.34 2 -0.68 2 0 2 C0 1.34 0 0.68 0 0 Z " fill="#E7DDDC" transform="translate(100,109)"/>
<path d="M0 0 C1.65 0 3.3 0 5 0 C5 0.99 5 1.98 5 3 C4.01 3 3.02 3 2 3 C1.67 3.99 1.34 4.98 1 6 C0 3 0 3 0 0 Z " fill="#F3EDEE" transform="translate(141,18)"/>
<path d="M0 0 C1.5 1.375 1.5 1.375 3 3 C3 3.66 3 4.32 3 5 C3.66 5 4.32 5 5 5 C4.67 5.66 4.34 6.32 4 7 C2.35 6.67 0.7 6.34 -1 6 C-0.67 4.02 -0.34 2.04 0 0 Z " fill="#DDCFD0" transform="translate(102,13)"/>
<path d="M0 0 C1.32 0 2.64 0 4 0 C3.67 1.65 3.34 3.3 3 5 C2.01 4.67 1.02 4.34 0 4 C0 2.68 0 1.36 0 0 Z " fill="#F0E7E9" transform="translate(59,12)"/>
<path d="M0 0 C0.66 1.32 1.32 2.64 2 4 C2.99 4 3.98 4 5 4 C4.67 5.32 4.34 6.64 4 8 C2.68 7.67 1.36 7.34 0 7 C0 4.69 0 2.38 0 0 Z " fill="#E2D8D8" transform="translate(38,10)"/>
<path d="M0 0 C0.66 0.33 1.32 0.66 2 1 C1.34 3.31 0.68 5.62 0 8 C-0.66 8 -1.32 8 -2 8 C-2.33 6.02 -2.66 4.04 -3 2 C-2.01 2 -1.02 2 0 2 C0 1.34 0 0.68 0 0 Z " fill="#6E6667" transform="translate(52,10)"/>
<path d="M0 0 C0.66 0 1.32 0 2 0 C2 1.98 2 3.96 2 6 C2.66 6.33 3.32 6.66 4 7 C3.01 7.33 2.02 7.66 1 8 C0 7 0 7 -0.0625 3.4375 C-0.041875 2.303125 -0.02125 1.16875 0 0 Z " fill="#786E6F" transform="translate(10,183)"/>
<path d="M0 0 C0.99 0.33 1.98 0.66 3 1 C2.67 2.32 2.34 3.64 2 5 C1.34 3.35 0.68 1.7 0 0 Z M-4 2 C-2.68 2.33 -1.36 2.66 0 3 C-1.98 3.99 -1.98 3.99 -4 5 C-4 4.01 -4 3.02 -4 2 Z " fill="#F7F2F2" transform="translate(92,186)"/>
<path d="M0 0 C1.98 0 3.96 0 6 0 C5.67 0.99 5.34 1.98 5 3 C3.02 3 1.04 3 -1 3 C-0.67 2.01 -0.34 1.02 0 0 Z " fill="#563231" transform="translate(105,126)"/>
</svg>
