<svg xmlns="http://www.w3.org/2000/svg" width="160" height="190" viewBox="0 0 160 190" role="img" aria-labelledby="title desc">
  <title id="title">University of Ruhuna logo</title>
  <desc id="desc">A gold and maroon university crest mark.</desc>
  <defs>
    <linearGradient id="gold" x1="40" x2="120" y1="20" y2="165" gradientUnits="userSpaceOnUse">
      <stop stop-color="#ffd75a"/>
      <stop offset="0.55" stop-color="#f1ad22"/>
      <stop offset="1" stop-color="#c97912"/>
    </linearGradient>
    <filter id="shadow" x="-20%" y="-20%" width="140%" height="145%">
      <feDropShadow dx="0" dy="7" stdDeviation="5" flood-color="#4b1716" flood-opacity="0.28"/>
    </filter>
  </defs>
  <path fill="#fff7df" d="M0 0h160v190H0z"/>
  <g filter="url(#shadow)">
    <path fill="#6a1f1d" d="M80 12c36 0 62 25 62 62v47c0 34-27 57-62 57s-62-23-62-57V74c0-37 26-62 62-62z"/>
    <path fill="url(#gold)" d="M80 21c30 0 52 21 52 53v47c0 28-22 47-52 47s-52-19-52-47V74c0-32 22-53 52-53z"/>
    <path fill="none" stroke="#5b1716" stroke-width="4" d="M80 31c24 0 42 17 42 44v44c0 22-18 38-42 38s-42-16-42-38V75c0-27 18-44 42-44z"/>
    <path fill="#7a211f" d="M72 48h16v78H72z"/>
    <path fill="#7a211f" d="M80 46c16 12 25 27 27 47-11-9-19-21-27-47zM80 46c-16 12-25 27-27 47 11-9 19-21 27-47z"/>
    <path fill="none" stroke="#7a211f" stroke-linecap="round" stroke-width="4" d="M55 129c18 7 32 7 50 0M58 118c15 5 29 5 44 0M64 107c10 4 22 4 32 0"/>
    <circle cx="80" cy="141" r="5" fill="#7a211f"/>
    <path fill="none" stroke="#7a211f" stroke-linecap="round" stroke-width="3" d="M49 63c5-9 14-15 25-17M111 63c-5-9-14-15-25-17"/>
  </g>
</svg>
